<svg width="24" height="25" viewBox="0 0 24 25" fill="none" xmlns="http://www.w3.org/2000/svg">
<path d="M13.0291 2.50049C14.1545 2.50235 14.7248 2.50831 15.2176 2.52298L15.4117 2.52932C15.6359 2.53729 15.8571 2.54729 16.1238 2.55979C17.1879 2.60896 17.9138 2.77729 18.5513 3.02479C19.2104 3.27896 19.7671 3.62229 20.3229 4.17813C20.8779 4.73396 21.2213 5.29229 21.4763 5.94979C21.7229 6.58646 21.8913 7.31313 21.9413 8.37729C21.9532 8.64396 21.9628 8.86516 21.9707 9.0894L21.977 9.28349C21.9916 9.77623 21.9983 10.3466 22.0004 11.4721L22.0012 12.2177C22.0013 12.3088 22.0013 12.4028 22.0013 12.4998L22.0012 12.7819L22.0006 13.5276C21.9987 14.653 21.9928 15.2234 21.9781 15.7161L21.9717 15.9102C21.9638 16.1345 21.9538 16.3557 21.9413 16.6223C21.8921 17.6865 21.7229 18.4123 21.4763 19.0498C21.2221 19.709 20.8779 20.2657 20.3229 20.8215C19.7671 21.3765 19.2079 21.7198 18.5513 21.9748C17.9138 22.2215 17.1879 22.3898 16.1238 22.4398C15.8571 22.4517 15.6359 22.4614 15.4117 22.4692L15.2176 22.4755C14.7248 22.4902 14.1545 22.4968 13.0291 22.499L12.2834 22.4998C12.1923 22.4998 12.0983 22.4998 12.0013 22.4998H11.7192L10.9735 22.4991C9.84807 22.4973 9.27769 22.4913 8.78494 22.4766L8.59086 22.4703C8.36661 22.4623 8.14541 22.4523 7.87875 22.4398C6.81458 22.3907 6.08958 22.2215 5.45125 21.9748C4.79291 21.7207 4.23541 21.3765 3.67958 20.8215C3.12375 20.2657 2.78125 19.7065 2.52625 19.0498C2.27875 18.4123 2.11125 17.6865 2.06125 16.6223C2.04937 16.3557 2.03968 16.1345 2.03183 15.9102L2.02554 15.7161C2.01091 15.2234 2.00424 14.653 2.00208 13.5276L2.00195 11.4721C2.00381 10.3466 2.00976 9.77623 2.02443 9.28349L2.03078 9.0894C2.03875 8.86516 2.04875 8.64396 2.06125 8.37729C2.11041 7.31229 2.27875 6.58729 2.52625 5.94979C2.78041 5.29146 3.12375 4.73396 3.67958 4.17813C4.23541 3.62229 4.79375 3.27979 5.45125 3.02479C6.08875 2.77729 6.81375 2.60979 7.87875 2.55979C8.14541 2.54792 8.36661 2.53823 8.59086 2.53038L8.78494 2.52409C9.27769 2.50945 9.84807 2.50278 10.9735 2.50062L13.0291 2.50049ZM12.0013 7.49979C9.23835 7.49979 7.00125 9.73932 7.00125 12.4998C7.00125 15.2627 9.24078 17.4998 12.0013 17.4998C14.7642 17.4998 17.0013 15.2603 17.0013 12.4998C17.0013 9.73689 14.7617 7.49979 12.0013 7.49979ZM12.0013 9.49979C13.6582 9.49979 15.0013 10.8425 15.0013 12.4998C15.0013 14.1567 13.6586 15.4998 12.0013 15.4998C10.3444 15.4998 9.00125 14.1572 9.00125 12.4998C9.00125 10.8429 10.3439 9.49979 12.0013 9.49979ZM17.2513 5.99979C16.562 5.99979 16.0013 6.5597 16.0013 7.24894C16.0013 7.93819 16.5612 8.49896 17.2513 8.49896C17.9405 8.49896 18.5013 7.93906 18.5013 7.24894C18.5013 6.5597 17.9396 5.99893 17.2513 5.99979Z" fill="#F0EBE1"/>
</svg>
