<svg width="40" height="40" viewBox="0 0 40 40" fill="none" xmlns="http://www.w3.org/2000/svg">
<path fill-rule="evenodd" clip-rule="evenodd" d="M8.89732 7.65831C6.09898 9.47664 4.58398 11.8416 4.58398 14.2716C4.58398 16.7 6.10065 19.065 8.89732 20.8833C11.6807 22.6933 15.604 23.855 20.0007 23.855C24.3973 23.855 28.319 22.6933 31.104 20.8833C33.9023 19.065 35.4173 16.7 35.4173 14.2716C35.4173 11.8416 33.9007 9.47664 31.104 7.65831C28.3207 5.84998 24.3973 4.68831 20.0007 4.68831C15.604 4.68831 11.6823 5.84831 8.89732 7.65831ZM7.53398 5.56165C10.7807 3.45165 15.1923 2.18665 20.0007 2.18665C24.809 2.18665 29.2206 3.45331 32.4673 5.56165C35.7006 7.66498 37.9173 10.7166 37.9173 14.2716C37.9173 17.825 35.7006 20.8766 32.4673 22.9783C29.2206 25.09 24.809 26.3533 20.0007 26.3533C15.1923 26.3533 10.7807 25.09 7.53398 22.98C4.30065 20.8766 2.08398 17.825 2.08398 14.27C2.08398 10.7166 4.30065 7.66498 7.53398 5.56165Z" fill="#262522"/>
<path fill-rule="evenodd" clip-rule="evenodd" d="M3.24235 12.8166C3.57272 12.7923 3.89924 12.9001 4.15018 13.1163C4.40112 13.3326 4.55596 13.6396 4.58069 13.97L5.13902 21.5116C5.41457 25.2648 7.09997 28.7748 9.85672 31.3365C12.6135 33.8983 16.2374 35.3222 20.0007 35.3222C23.764 35.3222 27.3879 33.8983 30.1447 31.3365C32.9014 28.7748 34.5868 25.2648 34.8624 21.5116L35.4207 13.97C35.445 13.6393 35.5997 13.3319 35.8507 13.1153C36.1016 12.8987 36.4284 12.7906 36.759 12.815C37.0897 12.8393 37.3971 12.9939 37.6137 13.2449C37.8303 13.4959 37.9383 13.8226 37.914 14.1533L37.3557 21.6966C37.0341 26.0796 35.066 30.1785 31.8467 33.1702C28.6274 36.1619 24.3954 37.8247 20.0007 37.8247C15.6059 37.8247 11.3739 36.1619 8.15468 33.1702C4.93542 30.1785 2.96732 26.0796 2.64569 21.6966L2.08735 14.155C2.07531 13.9912 2.09563 13.8268 2.14716 13.6709C2.19869 13.515 2.28041 13.3708 2.38766 13.2466C2.49492 13.1223 2.6256 13.0204 2.77225 12.9466C2.91889 12.8728 3.07864 12.8287 3.24235 12.8166Z" fill="#262522"/>
<path fill-rule="evenodd" clip-rule="evenodd" d="M11.6676 9.58331C11.3361 9.58331 11.0181 9.715 10.7837 9.94943C10.5493 10.1838 10.4176 10.5018 10.4176 10.8333C10.4176 11.1648 10.5493 11.4828 10.7837 11.7172C11.0181 11.9516 11.3361 12.0833 11.6676 12.0833C11.9991 12.0833 12.3171 11.9516 12.5515 11.7172C12.7859 11.4828 12.9176 11.1648 12.9176 10.8333C12.9176 10.5018 12.7859 10.1838 12.5515 9.94943C12.3171 9.715 11.9991 9.58331 11.6676 9.58331ZM7.9176 10.8333C7.9176 10.3409 8.01459 9.85322 8.20305 9.39825C8.3915 8.94328 8.66773 8.52988 9.01595 8.18166C9.36417 7.83344 9.77756 7.55722 10.2325 7.36876C10.6875 7.18031 11.1751 7.08331 11.6676 7.08331C12.1601 7.08331 12.6477 7.18031 13.1027 7.36876C13.5576 7.55722 13.971 7.83344 14.3192 8.18166C14.6675 8.52988 14.9437 8.94328 15.1321 9.39825C15.3206 9.85322 15.4176 10.3409 15.4176 10.8333C15.4176 11.8279 15.0225 12.7817 14.3192 13.485C13.616 14.1882 12.6622 14.5833 11.6676 14.5833C10.673 14.5833 9.71921 14.1882 9.01595 13.485C8.31269 12.7817 7.9176 11.8279 7.9176 10.8333ZM30.8343 12.9166C30.5027 12.9166 30.1848 13.0483 29.9504 13.2828C29.716 13.5172 29.5843 13.8351 29.5843 14.1666C29.5843 14.4982 29.716 14.8161 29.9504 15.0505C30.1848 15.2849 30.5027 15.4166 30.8343 15.4166C31.1658 15.4166 31.4837 15.2849 31.7181 15.0505C31.9526 14.8161 32.0843 14.4982 32.0843 14.1666C32.0843 13.8351 31.9526 13.5172 31.7181 13.2828C31.4837 13.0483 31.1658 12.9166 30.8343 12.9166ZM27.0843 14.1666C27.0843 13.1721 27.4794 12.2183 28.1826 11.515C28.8859 10.8117 29.8397 10.4166 30.8343 10.4166C31.8288 10.4166 32.7827 10.8117 33.4859 11.515C34.1892 12.2183 34.5843 13.1721 34.5843 14.1666C34.5843 15.1612 34.1892 16.115 33.4859 16.8183C32.7827 17.5216 31.8288 17.9166 30.8343 17.9166C29.8397 17.9166 28.8859 17.5216 28.1826 16.8183C27.4794 16.115 27.0843 15.1612 27.0843 14.1666ZM23.2776 8.15664C22.7376 8.33664 22.0909 8.76498 21.5326 9.44998C20.9743 10.1333 20.6843 10.8533 20.6176 11.42C20.5493 12.0033 20.7209 12.2416 20.8093 12.315C20.8993 12.3866 21.1659 12.5066 21.7226 12.3216C22.2643 12.1433 22.9109 11.715 23.4693 11.03C24.0276 10.3466 24.3176 9.62498 24.3843 9.05831C24.4526 8.47498 24.2809 8.23831 24.1926 8.16498C24.1026 8.09331 23.8359 7.97331 23.2776 8.15664ZM22.4926 5.78498C23.5343 5.43998 24.7926 5.42831 25.7726 6.22831C26.7526 7.02831 26.9959 8.26164 26.8676 9.35164C26.7376 10.4583 26.2193 11.6133 25.4076 12.61C24.5943 13.605 23.5676 14.345 22.5093 14.695C21.4676 15.04 20.2093 15.0516 19.2293 14.2516C18.2493 13.4516 18.0059 12.2183 18.1343 11.1283C18.2643 10.0216 18.7826 8.86664 19.5943 7.86998C20.4076 6.87331 21.4343 6.13498 22.4926 5.78498ZM15.7893 13.75C15.995 13.75 16.1976 13.8008 16.3791 13.8979C16.5605 13.995 16.7151 14.1354 16.8293 14.3066L20.1626 19.3066C20.2881 19.4949 20.3601 19.7137 20.371 19.9396C20.382 20.1656 20.3314 20.3903 20.2246 20.5898C20.1179 20.7892 19.959 20.956 19.7649 21.0723C19.5708 21.1885 19.3488 21.25 19.1226 21.25H12.4559C12.2297 21.25 12.0077 21.1885 11.8136 21.0723C11.6195 20.956 11.4607 20.7892 11.3539 20.5898C11.2472 20.3903 11.1966 20.1656 11.2075 19.9396C11.2184 19.7137 11.2904 19.4949 11.4159 19.3066L14.7493 14.3066C14.8634 14.1354 15.018 13.995 15.1995 13.8979C15.3809 13.8008 15.5835 13.75 15.7893 13.75ZM14.7909 18.75H16.7859L15.7893 17.2533L14.7909 18.75ZM23.2893 17.0833C23.6208 17.0833 23.9387 17.215 24.1731 17.4494C24.4076 17.6838 24.5393 18.0018 24.5393 18.3333V21.6666C24.5393 21.9982 24.4076 22.3161 24.1731 22.5505C23.9387 22.7849 23.6208 22.9166 23.2893 22.9166C22.9577 22.9166 22.6398 22.7849 22.4054 22.5505C22.171 22.3161 22.0393 21.9982 22.0393 21.6666V18.3333C22.0393 18.0018 22.171 17.6838 22.4054 17.4494C22.6398 17.215 22.9577 17.0833 23.2893 17.0833ZM26.6226 16.25C26.9541 16.25 27.2721 16.3817 27.5065 16.6161C27.7409 16.8505 27.8726 17.1685 27.8726 17.5V20.8333C27.8726 21.1648 27.7409 21.4828 27.5065 21.7172C27.2721 21.9516 26.9541 22.0833 26.6226 22.0833C26.2911 22.0833 25.9731 21.9516 25.7387 21.7172C25.5043 21.4828 25.3726 21.1648 25.3726 20.8333V17.5C25.3726 17.1685 25.5043 16.8505 25.7387 16.6161C25.9731 16.3817 26.2911 16.25 26.6226 16.25ZM6.57093 14.95C6.68701 14.8338 6.82485 14.7417 6.97656 14.6788C7.12827 14.6159 7.29088 14.5836 7.4551 14.5836C7.61932 14.5836 7.78193 14.6159 7.93364 14.6788C8.08535 14.7417 8.22318 14.8338 8.33926 14.95L10.8393 17.45C10.9621 17.5644 11.0606 17.7024 11.1289 17.8557C11.1972 18.0091 11.234 18.1746 11.2369 18.3424C11.2399 18.5103 11.209 18.677 11.1461 18.8326C11.0833 18.9883 10.9897 19.1297 10.871 19.2484C10.7523 19.3671 10.6109 19.4606 10.4553 19.5235C10.2996 19.5864 10.1329 19.6173 9.96506 19.6143C9.79722 19.6113 9.6317 19.5746 9.47837 19.5063C9.32504 19.438 9.18703 19.3395 9.0726 19.2166L6.5726 16.7166C6.33851 16.4823 6.20703 16.1646 6.20703 15.8333C6.20703 15.5021 6.33851 15.1844 6.5726 14.95H6.57093Z" fill="#262522"/>
</svg>
