<svg width="40" height="40" viewBox="0 0 40 40" fill="none" xmlns="http://www.w3.org/2000/svg">
<path fill-rule="evenodd" clip-rule="evenodd" d="M20 3.75C11.025 3.75 3.75 11.025 3.75 20C3.75 28.975 11.025 36.25 20 36.25C28.975 36.25 36.25 28.975 36.25 20C36.25 11.025 28.975 3.75 20 3.75ZM1.25 20C1.25 9.645 9.645 1.25 20 1.25C30.355 1.25 38.75 9.645 38.75 20C38.75 30.355 30.355 38.75 20 38.75C9.645 38.75 1.25 30.355 1.25 20Z" fill="#262522"/>
<path fill-rule="evenodd" clip-rule="evenodd" d="M2.91602 4.16669C2.91602 3.83517 3.04771 3.51722 3.28213 3.2828C3.51655 3.04838 3.8345 2.91669 4.16602 2.91669H12.4993C12.8309 2.91669 13.1488 3.04838 13.3832 3.2828C13.6177 3.51722 13.7493 3.83517 13.7493 4.16669C13.7493 4.49821 13.6177 4.81615 13.3832 5.05057C13.1488 5.28499 12.8309 5.41669 12.4993 5.41669H5.41602V12.5C5.41602 12.8315 5.28432 13.1495 5.0499 13.3839C4.81548 13.6183 4.49754 13.75 4.16602 13.75C3.8345 13.75 3.51655 13.6183 3.28213 13.3839C3.04771 13.1495 2.91602 12.8315 2.91602 12.5V4.16669ZM26.2493 4.16669C26.2493 3.83517 26.381 3.51722 26.6155 3.2828C26.8499 3.04838 27.1678 2.91669 27.4993 2.91669H35.8327C36.1642 2.91669 36.4821 3.04838 36.7166 3.2828C36.951 3.51722 37.0827 3.83517 37.0827 4.16669V12.5C37.0827 12.8315 36.951 13.1495 36.7166 13.3839C36.4821 13.6183 36.1642 13.75 35.8327 13.75C35.5012 13.75 35.1832 13.6183 34.9488 13.3839C34.7144 13.1495 34.5827 12.8315 34.5827 12.5V5.41669H27.4993C27.1678 5.41669 26.8499 5.28499 26.6155 5.05057C26.381 4.81615 26.2493 4.49821 26.2493 4.16669ZM4.16602 26.25C4.49754 26.25 4.81548 26.3817 5.0499 26.6161C5.28432 26.8506 5.41602 27.1685 5.41602 27.5V34.5834H11.666C11.9975 34.5834 12.3155 34.715 12.5499 34.9495C12.7843 35.1839 12.916 35.5018 12.916 35.8334C12.916 36.1649 12.7843 36.4828 12.5499 36.7172C12.3155 36.9517 11.9975 37.0834 11.666 37.0834H4.16602C3.8345 37.0834 3.51655 36.9517 3.28213 36.7172C3.04771 36.4828 2.91602 36.1649 2.91602 35.8334V27.5C2.91602 27.1685 3.04771 26.8506 3.28213 26.6161C3.51655 26.3817 3.8345 26.25 4.16602 26.25ZM35.8327 26.25C36.1642 26.25 36.4821 26.3817 36.7166 26.6161C36.951 26.8506 37.0827 27.1685 37.0827 27.5V35.8334C37.0827 36.1649 36.951 36.4828 36.7166 36.7172C36.4821 36.9517 36.1642 37.0834 35.8327 37.0834H27.4993C27.1678 37.0834 26.8499 36.9517 26.6155 36.7172C26.381 36.4828 26.2493 36.1649 26.2493 35.8334C26.2493 35.5018 26.381 35.1839 26.6155 34.9495C26.8499 34.715 27.1678 34.5834 27.4993 34.5834H34.5827V27.5C34.5827 27.1685 34.7144 26.8506 34.9488 26.6161C35.1832 26.3817 35.5012 26.25 35.8327 26.25ZM11.221 12.96C11.3691 12.6634 11.6289 12.4378 11.9434 12.3328C12.2578 12.2278 12.6011 12.252 12.8977 12.4L16.131 14.0167C17.2854 14.5945 18.281 15.4459 19.031 16.4967L22.9993 22.05C23.5144 22.7684 24.196 23.35 24.986 23.7467L28.2193 25.3634C28.3704 25.4342 28.5058 25.5345 28.6175 25.6585C28.7292 25.7824 28.8149 25.9275 28.8696 26.0851C28.9244 26.2427 28.947 26.4097 28.9362 26.5762C28.9254 26.7427 28.8814 26.9053 28.8067 27.0545C28.732 27.2038 28.6283 27.3365 28.5015 27.445C28.3747 27.5534 28.2275 27.6354 28.0685 27.6861C27.9096 27.7368 27.7421 27.7552 27.5759 27.7401C27.4097 27.725 27.2483 27.6768 27.101 27.5984L23.8677 25.9817C22.7129 25.4045 21.7167 24.5537 20.966 23.5034L16.9993 17.95C16.4855 17.2308 15.8034 16.6483 15.0127 16.2534L11.7793 14.6367C11.483 14.4883 11.2578 14.2283 11.1531 13.9139C11.0484 13.5995 11.0728 13.2564 11.221 12.96ZM17.1127 9.42335C17.1862 9.27643 17.2879 9.14542 17.412 9.03783C17.5361 8.93024 17.6803 8.84817 17.8361 8.79631C17.992 8.74446 18.1566 8.72384 18.3204 8.73563C18.4843 8.74742 18.6442 8.79139 18.791 8.86502L21.7677 10.3534C23.1151 11.0265 24.2426 12.0701 25.0177 13.3617L26.5543 15.925C27.0843 16.8084 27.8544 17.5217 28.776 17.9834L31.7543 19.4717C32.0388 19.6266 32.2519 19.8858 32.349 20.1948C32.446 20.5038 32.4194 20.8384 32.2746 21.1281C32.1299 21.4178 31.8783 21.64 31.573 21.748C31.2677 21.8559 30.9323 21.8411 30.6377 21.7067L27.6594 20.2184C26.3119 19.5452 25.1844 18.5016 24.4093 17.21L22.8727 14.6484C22.3429 13.765 21.5722 13.0509 20.651 12.59L17.6727 11.1017C17.5258 11.0282 17.3948 10.9265 17.2872 10.8024C17.1796 10.6782 17.0975 10.5341 17.0456 10.3782C16.9938 10.2224 16.9732 10.0578 16.985 9.89396C16.9967 9.73011 17.0407 9.5702 17.1143 9.42335H17.1127ZM7.68602 18.8517C7.8344 18.5554 8.09436 18.3301 8.40877 18.2254C8.72317 18.1207 9.06628 18.1452 9.36268 18.2934L12.341 19.7817C13.6873 20.4554 14.8135 21.499 15.5877 22.79L17.126 25.3534C17.656 26.2367 18.426 26.95 19.3477 27.41L22.326 28.9C22.4788 28.9697 22.6159 29.0694 22.7293 29.1932C22.8426 29.3171 22.9299 29.4625 22.9858 29.6207C23.0418 29.779 23.0652 29.9469 23.0549 30.1145C23.0445 30.2821 23.0005 30.4458 22.9255 30.596C22.8504 30.7462 22.7459 30.8797 22.6182 30.9886C22.4904 31.0975 22.342 31.1795 22.1819 31.2299C22.0217 31.2802 21.853 31.2977 21.686 31.2814C21.5189 31.2651 21.3568 31.2153 21.2093 31.135L18.231 29.6467C16.8836 28.9735 15.7561 27.9299 14.981 26.6384L13.4444 24.075C12.9143 23.1922 12.1437 22.4788 11.2227 22.0184L8.24435 20.5284C7.94805 20.38 7.72279 20.12 7.61809 19.8056C7.5134 19.4912 7.53783 19.1481 7.68602 18.8517Z" fill="#262522"/>
</svg>
